<?xml version="1.0" encoding="utf-8"?>
<!-- Generator: Adobe Illustrator 16.0.0, SVG Export Plug-In . SVG Version: 6.00 Build 0)  -->
<!DOCTYPE svg PUBLIC "-//W3C//DTD SVG 1.1//EN" "http://www.w3.org/Graphics/SVG/1.1/DTD/svg11.dtd">
<svg version="1.1" id="Layer_1" xmlns="http://www.w3.org/2000/svg" xmlns:xlink="http://www.w3.org/1999/xlink" x="0px" y="0px"
	 width="300px" height="78.963px" viewBox="0 0 300 78.963" enable-background="new 0 0 300 78.963" xml:space="preserve">
<g>
	<g>
		<path fill="#0066D9" d="M280.417,6.542c0,0.946-0.429,1.72-1.284,2.321c-0.854,0.6-1.953,0.901-3.295,0.901v9.61
			c0,0.948-0.434,1.721-1.303,2.321c-0.869,0.601-1.986,0.901-3.355,0.901c-1.341,0-2.447-0.3-3.315-0.901
			c-0.869-0.6-1.302-1.373-1.302-2.321v-9.61c-1.343,0-2.441-0.301-3.296-0.901c-0.855-0.601-1.283-1.366-1.283-2.294
			c0-0.945,0.434-1.72,1.303-2.321c0.869-0.6,1.974-0.901,3.315-0.901h9.158c1.368,0,2.486,0.301,3.355,0.901
			C279.983,4.849,280.417,5.613,280.417,6.542z"/>
		<path fill="#FFFFFF" d="M271.18,22.838c-1.387,0-2.549-0.318-3.453-0.944c-0.934-0.645-1.407-1.493-1.407-2.521v-9.37
			c-1.278-0.035-2.351-0.352-3.192-0.942c-0.92-0.646-1.387-1.485-1.387-2.493c0-1.026,0.474-1.875,1.407-2.521
			c0.908-0.626,2.069-0.944,3.453-0.944h9.158c1.41,0,2.585,0.318,3.493,0.944c0.934,0.646,1.407,1.485,1.407,2.494
			c0,1.024-0.466,1.872-1.387,2.52c-0.841,0.59-1.914,0.907-3.192,0.942v9.37c0,1.028-0.474,1.875-1.408,2.521
			C273.768,22.521,272.593,22.838,271.18,22.838z M266.602,3.589c-1.283,0-2.352,0.289-3.177,0.858
			c-0.806,0.557-1.198,1.251-1.198,2.121c0,0.853,0.386,1.538,1.18,2.096c0.81,0.568,1.872,0.857,3.156,0.857h0.243v9.853
			c0,0.871,0.392,1.564,1.197,2.121c0.822,0.57,1.891,0.858,3.177,0.858c1.312,0,2.394-0.288,3.217-0.857
			c0.806-0.557,1.198-1.25,1.198-2.121V9.521h0.243c1.284,0,2.346-0.289,3.156-0.857c0.793-0.559,1.18-1.253,1.18-2.122
			c0-0.852-0.392-1.537-1.198-2.095c-0.825-0.569-1.907-0.858-3.217-0.858H266.602z"/>
	</g>
	<g>
		<path fill="#0066D9" d="M299.757,19.374c0,0.948-0.441,1.721-1.322,2.321c-0.884,0.601-2.007,0.901-3.376,0.901
			c-1.473,0-2.658-0.354-3.553-1.064c-0.841,0.655-1.972,0.983-3.393,0.983c-1.422,0-2.552-0.328-3.396-0.983
			c-0.894,0.709-2.078,1.064-3.55,1.064c-1.37,0-2.494-0.3-3.376-0.901c-0.881-0.6-1.321-1.373-1.321-2.321V6.896
			c0-1.056,0.414-1.911,1.243-2.566c0.828-0.656,2.006-0.983,3.533-0.983c2.078,0,3.553,0.801,4.42,2.403l2.448,4.451l2.447-4.451
			c0.868-1.602,2.329-2.403,4.381-2.403c1.526,0,2.709,0.328,3.551,0.983c0.843,0.655,1.264,1.511,1.264,2.566V19.374z"/>
		<path fill="#FFFFFF" d="M295.059,22.838c-1.443,0-2.638-0.337-3.554-1.003c-0.865,0.612-2.005,0.922-3.392,0.922
			c-1.387,0-2.527-0.31-3.394-0.922c-0.916,0.666-2.11,1.003-3.552,1.003c-1.413,0-2.595-0.317-3.513-0.943
			c-0.947-0.645-1.428-1.493-1.428-2.521V6.896c0-1.128,0.449-2.056,1.335-2.757c0.869-0.688,2.108-1.036,3.684-1.036
			c2.166,0,3.724,0.852,4.633,2.53l2.234,4.062l2.234-4.063c0.909-1.678,2.455-2.529,4.594-2.529c1.575,0,2.819,0.348,3.701,1.035
			C299.543,4.839,300,5.767,300,6.896v12.477c0,1.027-0.481,1.875-1.428,2.521C297.652,22.521,296.471,22.838,295.059,22.838z
			 M291.508,21.222l0.149,0.119c0.846,0.671,1.991,1.011,3.402,1.011c1.312,0,2.402-0.289,3.239-0.859
			c0.818-0.557,1.216-1.25,1.216-2.12V6.896c0-0.986-0.383-1.763-1.17-2.375c-0.794-0.619-1.939-0.933-3.402-0.933
			c-1.975,0-3.338,0.745-4.167,2.276l-2.661,4.839l-2.661-4.838c-0.83-1.533-2.206-2.277-4.207-2.277
			c-1.464,0-2.602,0.313-3.383,0.931c-0.774,0.613-1.151,1.39-1.151,2.376v12.477c0,0.87,0.397,1.563,1.215,2.12
			c0.836,0.57,1.926,0.859,3.24,0.859c1.41,0,2.554-0.34,3.399-1.011l0.149-0.119l0.15,0.117c0.796,0.618,1.889,0.932,3.247,0.932
			c1.358,0,2.449-0.313,3.244-0.932L291.508,21.222z"/>
	</g>
</g>
<g>
	<g>
		<path fill="#0066D9" d="M107.993,78.72c-2.831,0-5.692-0.823-8.206-2.54c-6.649-4.539-8.359-13.609-3.82-20.259l17.25-25.267
			c0.48-0.704,1.013-1.354,1.59-1.947c-2.416-3.645-3.12-8.277-1.7-12.603c1.964-5.985,7.551-10.031,13.85-10.031h28.426
			c5.052,0,9.744,2.616,12.4,6.914c2.656,4.298,2.897,9.665,0.638,14.183l-2.816,5.632c0.953,1.806,1.526,3.814,1.655,5.901
			c0.266,4.312-1.394,8.519-4.532,11.488l-8.989,8.503c-4.45,4.209-11.058,5.188-16.537,2.448l-7.082-3.541L120.046,72.36
			C117.223,76.495,112.648,78.72,107.993,78.72z"/>
		<path fill="#FFFFFF" d="M107.993,78.963c-2.984,0-5.869-0.893-8.343-2.582c-6.749-4.607-8.491-13.847-3.884-20.596l17.25-25.268
			c0.444-0.651,0.942-1.269,1.481-1.838c-2.433-3.776-3.025-8.375-1.622-12.649c2.002-6.1,7.661-10.198,14.081-10.198h28.426
			c5.174,0,9.887,2.628,12.607,7.029c2.72,4.401,2.963,9.792,0.649,14.419l-2.761,5.521c0.951,1.839,1.497,3.819,1.625,5.889
			c0.271,4.396-1.408,8.653-4.607,11.679l-8.989,8.503c-2.764,2.614-6.382,4.054-10.188,4.055c-2.286,0-4.576-0.542-6.624-1.565
			l-6.892-3.446l-9.955,14.582C117.482,76.546,112.902,78.963,107.993,78.963z M126.957,6.317c-6.209,0-11.683,3.964-13.62,9.864
			c-1.377,4.194-0.768,8.711,1.672,12.393l0.108,0.163l-0.137,0.141c-0.572,0.588-1.098,1.232-1.563,1.914l-17.25,25.268
			c-4.457,6.528-2.771,15.464,3.756,19.921c2.393,1.634,5.183,2.497,8.069,2.497c4.748,0,9.179-2.337,11.852-6.253l10.193-14.932
			l7.272,3.636c1.98,0.991,4.196,1.514,6.407,1.514c3.682,0,7.181-1.393,9.854-3.921l8.989-8.503
			c3.095-2.927,4.719-7.044,4.457-11.296c-0.126-2.042-0.673-3.994-1.627-5.803l-0.058-0.11l2.872-5.744
			c2.238-4.476,2.004-9.689-0.627-13.947c-2.631-4.256-7.189-6.798-12.194-6.798H126.957z"/>
	</g>
</g>
<g>
	<g>
		<path fill="#0066D9" d="M163.644,78.718h-11.419c-8.051,0-14.578-6.526-14.578-14.577v-7.289c0-3.702,1.408-7.264,3.938-9.965
			l6.853-7.316c-4.578-4.987-5.188-12.664-1.076-18.371c4.707-6.532,13.818-8.011,20.349-3.305l1.773,1.278l0.54-5.722
			c0.706-7.487,6.992-13.208,14.513-13.208h9.476c8.051,0,14.577,6.527,14.577,14.578v3.194l16.117,16.117
			c0.017,0.017,0.033,0.032,0.049,0.049l11.149,11.149c5.693,5.693,5.693,14.923,0,20.616l-7.41,7.41
			c-2.734,2.734-6.443,4.269-10.308,4.27c-0.027,0-0.054,0-0.082,0l-21.745-0.121c-5.846-0.033-11.107-3.555-13.365-8.947
			c-0.499-1.19-0.829-2.421-0.999-3.661l-7.161,8.584C172.067,76.799,167.967,78.718,163.644,78.718z"/>
		<path fill="#FFFFFF" d="M163.644,78.961h-11.419c-8.172,0-14.821-6.648-14.821-14.82v-7.289c0-3.777,1.422-7.375,4.004-10.131
			l6.7-7.153c-4.583-5.148-4.989-12.895-0.943-18.51c2.778-3.855,7.277-6.157,12.036-6.157c3.121,0,6.112,0.967,8.652,2.797
			l1.429,1.03l0.5-5.299C170.505,5.773,176.848,0,184.538,0h9.476c8.172,0,14.82,6.648,14.82,14.821v3.093l16.046,16.046
			l-0.123,0.221l0.171-0.172l11.149,11.149c5.778,5.778,5.778,15.181,0,20.959l-7.41,7.41c-2.799,2.799-6.521,4.34-10.479,4.341
			l-0.083,0l-21.744-0.122c-5.954-0.033-11.288-3.604-13.587-9.095c-0.429-1.025-0.742-2.095-0.932-3.188l-6.817,8.171
			C172.2,77.02,168.052,78.961,163.644,78.961z M159.202,15.386c-4.603,0-8.955,2.227-11.642,5.956
			c-3.957,5.49-3.511,13.087,1.058,18.065l0.152,0.166l-7.007,7.48c-2.498,2.666-3.873,6.146-3.873,9.799v7.289
			c0,7.904,6.43,14.334,14.334,14.334h11.419c4.264,0,8.275-1.877,11.007-5.151l7.514-9.007l0.074,0.546
			c0.168,1.235,0.499,2.447,0.982,3.6c2.224,5.312,7.383,8.765,13.142,8.797l21.825,0.122c3.829,0,7.429-1.491,10.136-4.198
			l7.41-7.41c5.589-5.589,5.589-14.683,0-20.272l-27.386-27.386v-3.294c0-7.904-6.431-14.334-14.334-14.334h-9.476
			c-7.437,0-13.572,5.583-14.271,12.988l-0.58,6.144l-2.118-1.526C165.113,16.322,162.219,15.386,159.202,15.386z"/>
	</g>
</g>
<g>
	<g>
		<path fill="#0066D9" d="M199.839,58.796c-3.46,0-6.933-1.225-9.715-3.714c-6-5.368-6.512-14.584-1.144-20.584l16.521-18.464
			c2.766-3.091,6.716-4.857,10.864-4.857h17.736c5.896,0,11.211,3.552,13.468,8.999s1.009,11.717-3.16,15.886l-13.727,13.727
			c-4.907,4.908-12.444,5.584-18.078,2.03l-1.896,2.12C207.829,57.156,203.842,58.796,199.839,58.796z"/>
		<path fill="#FFFFFF" d="M199.839,59.039c-3.648,0-7.155-1.341-9.877-3.776c-2.95-2.64-4.696-6.27-4.916-10.223
			s1.113-7.754,3.753-10.705l16.521-18.464c2.808-3.139,6.834-4.938,11.045-4.938h17.736c6.016,0,11.39,3.591,13.692,9.149
			c2.302,5.558,1.042,11.897-3.212,16.151L230.854,49.96c-2.799,2.799-6.521,4.34-10.479,4.341c-2.738,0-5.404-0.749-7.725-2.168
			l-1.761,1.968C208.081,57.239,204.053,59.039,199.839,59.039z M216.365,11.419c-4.073,0-7.967,1.741-10.683,4.776L189.161,34.66
			c-2.553,2.854-3.842,6.53-3.629,10.354c0.212,3.823,1.9,7.334,4.754,9.888c2.632,2.355,6.025,3.652,9.553,3.652
			c4.076,0,7.972-1.741,10.688-4.777l2.033-2.272l0.174,0.109c2.283,1.44,4.925,2.202,7.64,2.202c3.829,0,7.429-1.491,10.136-4.199
			l13.727-13.727c4.114-4.114,5.334-10.246,3.107-15.622s-7.425-8.849-13.243-8.849H216.365z"/>
	</g>
</g>
<g>
	<g>
		<path fill="#0066D9" d="M277.924,78.719c-4.333,0-8.621-1.923-11.496-5.601l-9.74-12.461l-6.133,5.419
			c-5.562,4.915-13.928,4.865-19.432-0.115l-10.204-9.232c-2.96-2.679-4.693-6.455-4.793-10.446s1.442-7.849,4.265-10.672
			l22.838-22.838c5.693-5.693,14.923-5.693,20.616,0c4.06,4.06,5.225,9.918,3.494,15.01c1.036,0.771,1.975,1.683,2.786,2.72
			l19.274,24.66c4.958,6.343,3.835,15.505-2.508,20.463C284.226,77.709,281.063,78.719,277.924,78.719z"/>
		<path fill="#FFFFFF" d="M277.924,78.962L277.924,78.962c-4.598,0-8.858-2.075-11.687-5.694l-9.581-12.258l-5.94,5.248
			c-2.711,2.396-6.195,3.715-9.812,3.715c-3.682,0-7.213-1.36-9.944-3.831l-10.204-9.232c-2.996-2.71-4.772-6.581-4.873-10.619
			c-0.101-4.039,1.48-7.994,4.336-10.85l22.838-22.838c2.799-2.799,6.521-4.341,10.479-4.341c3.958,0,7.68,1.542,10.479,4.341
			c3.981,3.981,5.355,9.75,3.608,15.093c1.006,0.767,1.911,1.661,2.691,2.659l19.274,24.66c5.033,6.439,3.889,15.771-2.55,20.804
			C284.409,77.875,281.257,78.962,277.924,78.962z M256.722,60.304l9.898,12.665c2.736,3.5,6.856,5.508,11.304,5.508
			c3.223,0,6.272-1.052,8.817-3.041c3.017-2.358,4.935-5.75,5.4-9.55c0.466-3.8-0.576-7.555-2.934-10.571l-19.275-24.66
			c-0.79-1.01-1.711-1.91-2.739-2.675l-0.142-0.105l0.057-0.167c1.772-5.213,0.456-10.87-3.435-14.761
			c-2.708-2.707-6.307-4.198-10.136-4.198s-7.429,1.491-10.136,4.198l-22.838,22.838c-2.763,2.763-4.292,6.588-4.194,10.494
			c0.098,3.906,1.815,7.649,4.713,10.271l10.204,9.232c2.641,2.389,6.056,3.705,9.618,3.705c3.499,0,6.869-1.276,9.491-3.593
			L256.722,60.304z"/>
	</g>
</g>
<g>
	<g>
		<path fill="#0066D9" d="M66.281,8.451h-0.555c-1.624-3.818-3.616-7.238-5.487-7.019c-1.885,0.221-3.892,3.504-5.522,7.019h-4.458
			c-1.659-4.009-3.742-7.733-5.693-7.505c-1.971,0.231-4.077,3.812-5.745,7.505h-0.042c-16.747,0-30.322,13.576-30.322,30.322
			s13.575,30.322,30.322,30.322h27.502c16.746,0,30.322-13.576,30.322-30.322S83.027,8.451,66.281,8.451z"/>
	</g>
	<g>
		<path fill="#0066D9" d="M68.904,18.026c0,0-4.745-17.378-8.892-16.892c-4.147,0.486-8.892,15.792-8.892,15.792"/>
		<path fill="#FFFFFF" d="M68.669,18.09c-1.304-4.777-5.396-17.104-8.629-16.715c-1.605,0.188-3.613,2.932-5.807,7.935
			c-1.68,3.831-2.869,7.65-2.881,7.688l-0.464-0.144c0.196-0.631,4.84-15.463,9.095-15.962c4.299-0.502,8.958,16.352,9.154,17.07
			L68.669,18.09z"/>
	</g>
	<g>
		<path fill="#0066D9" d="M52.972,41.5c0,0,1.539,10.656-13.605,10.656"/>
		<path fill="#FFFFFF" d="M39.366,52.398v-0.486c5.294,0,9.104-1.301,11.326-3.866c2.525-2.915,2.044-6.476,2.04-6.512l0.48-0.069
			c0.022,0.155,0.516,3.818-2.152,6.899C48.742,51.041,44.807,52.398,39.366,52.398z"/>
	</g>
	<g>
		<circle fill="#0066D9" cx="44.34" cy="32.458" r="8.892"/>
		<path fill="#FFFFFF" d="M44.34,41.593c-5.037,0-9.135-4.098-9.135-9.135s4.098-9.134,9.135-9.134c5.037,0,9.134,4.098,9.134,9.134
			S49.376,41.593,44.34,41.593z M44.34,23.81c-4.769,0-8.649,3.88-8.649,8.648c0,4.769,3.88,8.648,8.649,8.648
			s8.648-3.879,8.648-8.648C52.988,27.69,49.109,23.81,44.34,23.81z"/>
	</g>
	<g>
		<circle fill="#0066D9" cx="62.123" cy="32.458" r="8.892"/>
		<path fill="#FFFFFF" d="M62.123,41.593c-5.037,0-9.135-4.098-9.135-9.135s4.098-9.134,9.135-9.134
			c5.037,0,9.135,4.098,9.135,9.134S67.16,41.593,62.123,41.593z M62.123,23.81c-4.769,0-8.649,3.88-8.649,8.648
			c0,4.769,3.88,8.648,8.649,8.648s8.648-3.879,8.648-8.648C70.771,27.69,66.892,23.81,62.123,23.81z"/>
	</g>
	<g>
		<path fill="#0066D9" d="M84.62,44.337c0-4.911-3.98-8.892-8.892-8.892c-4.911,0-8.892,3.98-8.892,8.892"/>
		<path fill="#FFFFFF" d="M84.863,44.337h-0.486c0-4.769-3.88-8.649-8.649-8.649s-8.648,3.88-8.648,8.649h-0.486
			c0-5.037,4.098-9.135,9.135-9.135C80.766,35.202,84.863,39.3,84.863,44.337z"/>
	</g>
	<g>
		<path fill="#0066D9" d="M39.366,44.337c0-4.911-3.981-8.892-8.892-8.892s-8.892,3.98-8.892,8.892"/>
		<path fill="#FFFFFF" d="M39.609,44.337h-0.486c0-4.769-3.879-8.649-8.648-8.649s-8.649,3.88-8.649,8.649H21.34
			c0-5.037,4.098-9.135,9.135-9.135C35.511,35.202,39.609,39.3,39.609,44.337z"/>
	</g>
	<g>
		<path fill="#0066D9" d="M53.231,32.458c0,0-6.736,4.356-17.784,0"/>
		<path fill="#FFFFFF" d="M44.93,34.623c-2.663,0-5.886-0.485-9.571-1.938l0.178-0.453c10.807,4.261,17.496,0.065,17.562,0.022
			l0.264,0.408C53.318,32.692,50.241,34.623,44.93,34.623z"/>
	</g>
	<g>
		<path fill="#0066D9" d="M71.015,31.491c0,0-6.736,4.356-17.783,0"/>
		<path fill="#FFFFFF" d="M62.713,33.655c-2.663,0-5.886-0.485-9.571-1.938l0.178-0.452c10.806,4.261,17.496,0.064,17.562,0.022
			l0.264,0.408C71.101,31.724,68.024,33.655,62.713,33.655z"/>
	</g>
	<g>
		<circle fill="#0066D9" cx="53.231" cy="39.481" r="2.018"/>
		<path fill="#FFFFFF" d="M53.231,41.743c-1.247,0-2.261-1.015-2.261-2.261s1.014-2.261,2.261-2.261
			c1.247,0,2.261,1.015,2.261,2.261S54.478,41.743,53.231,41.743z M53.231,37.706c-0.979,0-1.775,0.796-1.775,1.775
			s0.796,1.775,1.775,1.775s1.775-0.796,1.775-1.775S54.21,37.706,53.231,37.706z"/>
	</g>
	<g>
		<circle fill="#FFFFFF" cx="40.314" cy="35.809" r="2.018"/>
	</g>
	<g>
		<circle fill="#FFFFFF" cx="67.067" cy="35.015" r="2.018"/>
	</g>
	<g>
		<path fill="#0066D9" d="M53.231,41.5c0,0-1.539,10.656,13.605,10.656"/>
		<path fill="#FFFFFF" d="M66.837,52.398c-5.441,0-9.375-1.357-11.693-4.034c-2.668-3.082-2.175-6.745-2.153-6.899l0.481,0.069
			c-0.005,0.036-0.48,3.608,2.044,6.518c2.222,2.562,6.031,3.86,11.321,3.86V52.398z"/>
	</g>
	<g>
		<path fill="#0066D9" d="M53.231,17.541c0,0-4.745-17.378-8.892-16.893c-4.147,0.486-8.892,15.792-8.892,15.792"/>
		<path fill="#FFFFFF" d="M52.997,17.604c-1.305-4.777-5.392-17.106-8.629-16.715c-1.605,0.188-3.613,2.932-5.806,7.935
			c-1.68,3.831-2.87,7.65-2.881,7.688l-0.464-0.144c0.196-0.631,4.84-15.463,9.096-15.962c4.292-0.499,8.958,16.352,9.154,17.069
			L52.997,17.604z"/>
	</g>
	<g>
		<path fill="#FFFFFF" d="M66.055,69.04H38.553c-16.854,0-30.564-13.711-30.564-30.564S21.699,7.91,38.553,7.91v0.486
			c-16.585,0-30.079,13.494-30.079,30.079s13.493,30.079,30.079,30.079h27.502c16.585,0,30.079-13.493,30.079-30.079
			S82.64,8.396,66.055,8.396V7.91c16.854,0,30.565,13.711,30.565,30.565S82.908,69.04,66.055,69.04z"/>
	</g>
	<g>
		<path fill="#0066D9" d="M9.445,16.37c0,0-0.662-0.834-0.761-0.952c-0.098-0.116-0.696,0.763-0.835,0.952v0.001
			c-1.151,1.511-7.478,12.366-7.604,17.55c-0.11,4.572,3.375,8.365,7.787,8.473c4.41,0.107,8.076-3.514,8.186-8.087
			C16.344,29.083,10.458,17.796,9.445,16.37z"/>
		<path fill="#FFFFFF" d="M8.223,42.64C8.222,42.64,8.222,42.64,8.223,42.64l-0.197-0.002c-4.538-0.111-8.137-4.024-8.023-8.723
			c0.127-5.22,6.325-15.92,7.633-17.663L7.73,16.12c0.582-0.817,0.743-0.955,0.931-0.955h0.113l0.096,0.097
			c0.1,0.117,0.766,0.958,0.766,0.958c1.108,1.559,6.952,12.844,6.825,18.094C16.35,38.904,12.654,42.64,8.223,42.64z M8.092,16.448
			v0.004l-0.05,0.066c-1.199,1.573-7.432,12.359-7.554,17.409c-0.107,4.431,3.28,8.12,7.549,8.224l0.185,0.002
			c4.17,0,7.648-3.522,7.752-7.853c0.125-5.146-5.642-16.262-6.728-17.791l0,0c0,0-0.396-0.499-0.616-0.773
			c-0.109,0.123-0.278,0.345-0.505,0.664L8.092,16.448z"/>
	</g>
	<g>
		<line fill="#0066D9" x1="54.352" y1="8.451" x2="50.153" y2="8.451"/>
		<rect x="50.153" y="8.208" fill="#FFFFFF" width="4.199" height="0.486"/>
	</g>
</g>
<g>
	<polyline fill="#0066D9" points="113.095,33.071 88.946,39.025 113.095,44.767 	"/>
	<polygon fill="#FFFFFF" points="113.039,45.003 87.914,39.03 113.037,32.835 113.153,33.307 89.979,39.021 113.151,44.531 	"/>
</g>
</svg>
